<svg width="48" height="48" viewBox="0 0 48 48" fill="none" xmlns="http://www.w3.org/2000/svg">
<g clip-path="url(#clip0)">
<path d="M26.185 1.03311L30.1585 5.00662C30.3969 5.24503 30.3969 5.56291 30.1585 5.80132L25.7877 10.0927C23.8804 12.0795 21.9731 14.0662 20.0658 16.053L32.0658 28.053L42.1585 17.8808C42.3969 17.7219 42.7148 17.7219 42.8738 17.8808L46.7678 21.8543L46.9267 1.03311H26.185ZM29.0459 5.40397L24.5956 0.874172C24.5161 0.794702 24.4367 0.635762 24.4367 0.476821C24.4367 0.238411 24.6751 0 24.993 0H47.4036C47.7214 0 47.9598 0.238411 47.9598 0.556291L47.8009 23.0464C47.8009 23.2053 47.8009 23.2848 47.642 23.4437C47.483 23.6026 47.1651 23.6026 46.9267 23.4437L42.5559 18.9934L32.3837 29.0861C32.2247 29.3245 31.9069 29.3245 31.6685 29.0861L18.9532 16.3709C18.7148 16.2119 18.7148 15.894 18.9532 15.6556C22.3704 12.2384 25.6287 8.82119 29.0459 5.40397Z" fill="#003067"/>
<path d="M27.1389 32.9007L28.0131 32.0265L16.0131 20.0265L5.84088 30.1987H5.12564L1.15213 26.2252L1.07266 46.9669H21.8144L17.8409 43.0729V42.2782L22.1323 38.0663L27.1389 32.9007ZM29.0462 32.4239L27.8541 33.6159C24.8343 36.7153 21.9733 39.6557 18.9535 42.6755L23.4038 47.1259L23.0064 48H0.516372L0.0395508 47.5232L0.119021 24.9537L0.993193 24.6358L5.44352 29.0861L15.6157 18.9934H16.3309L29.0462 31.7086V32.4239Z" fill="#999999"/>
<path fill-rule="evenodd" clip-rule="evenodd" d="M41.4435 43.8675C41.6819 43.6291 42.9534 42.1192 43.3507 41.5629C43.5892 41.0861 43.9865 40.4503 43.9865 39.8146C43.9865 38.8609 43.2713 38.1457 42.3176 38.1457C41.205 38.1457 40.6488 39.0199 40.5693 39.9735H38.4236C38.5031 37.7483 40.0925 36.3179 42.2382 36.3179C44.7812 36.3179 46.1322 38.0662 46.1322 39.8146C46.1322 41.4834 44.9401 42.6755 44.1454 43.6291L42.2382 45.6954H46.2117V47.5232H38.2646L41.4435 43.8675Z" fill="#003067"/>
</g>
<defs>
<clipPath id="clip0">
<rect width="48" height="48" fill="white"/>
</clipPath>
</defs>
</svg>
